<svg width="889" height="641" viewBox="0 0 889 641" fill="none" xmlns="http://www.w3.org/2000/svg">
<path d="M410.616 617.33C410.809 624.528 412.013 631.663 414.194 638.525C414.242 638.684 414.296 638.841 414.348 639H427.7C427.686 638.857 427.671 638.698 427.657 638.525C426.767 628.279 431.853 566.664 437.989 556C437.452 556.865 409.581 584.775 410.616 617.33Z" fill="#F1F1F1"/>
<path d="M411.618 638.525C411.729 638.684 411.846 638.843 411.964 639H421.981C421.905 638.864 421.817 638.705 421.715 638.525C420.06 635.535 415.163 626.596 410.617 617.33C405.733 607.372 401.249 597.036 401.627 593.295C401.51 594.138 398.129 619.859 411.618 638.525Z" fill="#F1F1F1"/>
<path d="M53.8261 624.64C53.9537 629.41 54.7519 634.138 56.1971 638.685C56.2291 638.791 56.2647 638.894 56.2993 639H65.1466C65.1373 638.905 65.1277 638.8 65.1184 638.685C64.5285 631.896 67.8985 591.066 71.9651 584C71.6088 584.573 53.1401 603.068 53.8261 624.64Z" fill="#F1F1F1"/>
<path d="M54.4899 638.685C54.5639 638.791 54.6408 638.896 54.7196 639H61.3572C61.3069 638.91 61.2485 638.805 61.1809 638.685C60.0845 636.704 56.8392 630.781 53.8267 624.64C50.5907 618.042 47.6192 611.193 47.8694 608.714C47.7918 609.272 45.5516 626.316 54.4899 638.685Z" fill="#F1F1F1"/>
<path d="M480.346 624.64C480.474 629.41 481.272 634.138 482.717 638.685C482.749 638.791 482.785 638.894 482.819 639H491.667C491.657 638.905 491.648 638.8 491.639 638.685C491.049 631.896 494.419 591.066 498.485 584C498.129 584.573 479.66 603.068 480.346 624.64Z" fill="#F1F1F1"/>
<path d="M481.01 638.685C481.084 638.791 481.161 638.896 481.24 639H487.877C487.827 638.91 487.769 638.805 487.701 638.685C486.605 636.704 483.359 630.781 480.347 624.64C477.111 618.042 474.139 611.193 474.39 608.714C474.312 609.272 472.072 626.316 481.01 638.685Z" fill="#F1F1F1"/>
<path d="M670.772 0L769.911 163.458L483.34 337.658L384.201 174.2L670.772 0Z" fill="white"/>
<path d="M670.772 0L769.911 163.458L483.34 337.658L384.201 174.2L670.772 0ZM485.201 330.036L762.298 161.595L668.911 7.62137L391.814 176.063L485.201 330.036Z" fill="#E5E5E5"/>
<path d="M701.096 55.3418L703.972 60.0839L422.927 230.924L420.051 226.182L701.096 55.3418Z" fill="#E5E5E5"/>
<path d="M740.531 120.362L743.408 125.104L462.363 295.945L459.487 291.203L740.531 120.362Z" fill="#E5E5E5"/>
<path d="M592.616 47.509L691.755 210.967L687.019 213.846L587.88 50.3884L592.616 47.509Z" fill="#E5E5E5"/>
<path d="M433.937 143.967L533.075 307.425L538.009 304.87L438.674 141.087L433.937 143.967Z" fill="#E5E5E5"/>
<path d="M530.866 308.768L533.075 307.425L538.009 304.87L538.192 304.315L540.889 296.185L560.839 236.083L563.536 227.953L597.838 124.599L600.536 116.469L610.232 87.242L612.524 80.332L628.507 32.182L631.205 24.052L623.878 28.505L621.181 36.635L608.746 74.104L606.455 81.014L593.209 120.923L590.512 129.053L556.21 232.407L553.512 240.537L534.227 298.634L533.563 300.639L531.935 305.544L530.866 308.768Z" fill="#E5E5E5"/>
<path d="M541.938 254.901H544.699V179.16C544.699 173.404 545.832 167.704 548.033 162.385C550.233 157.067 553.458 152.234 557.524 148.164C561.59 144.093 566.417 140.864 571.73 138.661C577.042 136.458 582.736 135.324 588.486 135.324H748.772C754.522 135.324 760.216 136.458 765.529 138.661C770.841 140.864 775.668 144.093 779.734 148.163C783.8 152.234 787.026 157.066 789.226 162.385C791.427 167.703 792.559 173.404 792.559 179.16V594.677C792.559 600.434 791.427 606.134 789.226 611.452C787.026 616.771 783.8 621.603 779.734 625.674C775.668 629.745 770.841 632.974 765.529 635.177C760.216 637.38 754.522 638.513 748.772 638.513H588.487C576.874 638.513 565.736 633.895 557.525 625.674C549.313 617.453 544.7 606.303 544.699 594.677V308.814H541.938V254.901Z" fill="#3F3D56"/>
<path d="M586.72 146.729H607.642C606.68 149.09 606.313 151.653 606.573 154.19C606.833 156.727 607.712 159.161 609.133 161.278C610.554 163.395 612.473 165.129 614.722 166.329C616.97 167.528 619.479 168.156 622.026 168.156H713.852C716.399 168.156 718.908 167.528 721.156 166.329C723.405 165.129 725.324 163.395 726.745 161.278C728.166 159.161 729.045 156.727 729.305 154.19C729.565 151.653 729.198 149.09 728.236 146.729H747.777C756.45 146.729 764.767 150.178 770.899 156.317C777.032 162.456 780.477 170.783 780.477 179.465V594.372C780.477 598.671 779.631 602.928 777.988 606.9C776.345 610.872 773.936 614.481 770.9 617.52C767.863 620.56 764.258 622.972 760.291 624.617C756.324 626.262 752.072 627.109 747.777 627.109H586.72C582.426 627.109 578.173 626.262 574.206 624.617C570.239 622.972 566.634 620.56 563.598 617.52C560.561 614.481 558.153 610.872 556.509 606.9C554.866 602.928 554.02 598.671 554.02 594.372V594.372V179.465C554.02 175.166 554.866 170.909 556.509 166.938C558.153 162.966 560.561 159.357 563.598 156.317C566.634 153.277 570.239 150.866 574.206 149.221C578.173 147.576 582.426 146.729 586.72 146.729Z" fill="white"/>
<path d="M632.742 262.965H701.755V279.637H632.742V262.965Z" fill="#FFDE40"/>
<path d="M629.457 334.604H705.04V351.276H629.457V334.604Z" fill="#E5E5E5"/>
<path d="M582.901 370.418H751.596V387.09H582.901V370.418Z" fill="#E5E5E5"/>
<path d="M582.901 406.232H751.596V422.904H582.901V406.232Z" fill="#E5E5E5"/>
<path d="M632.742 485.61H701.755V510.872H632.742V485.61Z" fill="#FFDE40"/>
<path d="M515.724 137.054C511.506 137.054 508.087 133.631 508.087 129.409C508.087 125.186 511.506 121.763 515.724 121.763C519.942 121.763 523.361 125.186 523.361 129.409C523.361 133.631 519.942 137.054 515.724 137.054Z" fill="#FFDE40"/>
<path d="M324.067 448.183C322.866 447.555 321.817 446.672 320.994 445.594C320.171 444.517 319.594 443.272 319.304 441.948C319.014 440.623 319.017 439.251 319.314 437.928C319.611 436.604 320.194 435.362 321.022 434.289L310.503 415.892L320.112 406.766L334.601 432.955C336.31 434.467 337.406 436.555 337.68 438.821C337.954 441.088 337.389 443.377 336.09 445.254C334.791 447.131 332.85 448.465 330.634 449.005C328.418 449.545 326.081 449.253 324.067 448.183V448.183Z" fill="#FFB7B7"/>
<path d="M264.931 626.538H278.279L284.63 574.995L264.929 574.996L264.931 626.538Z" fill="#FFB7B7"/>
<path d="M261.527 639.492L304.567 639.49V638.945C304.567 634.497 302.802 630.232 299.66 627.087C296.518 623.942 292.258 622.175 287.815 622.174H287.814L261.527 622.175L261.527 639.492Z" fill="#2F2E41"/>
<path d="M152.213 609.36L163.984 615.661L193.861 573.205L176.487 563.906L152.213 609.36Z" fill="#FFB7B7"/>
<path d="M143.11 619.176L181.066 639.492L181.322 639.011C183.417 635.089 183.869 630.494 182.58 626.237C181.291 621.981 178.366 618.411 174.448 616.314L174.447 616.313L151.265 603.905L143.11 619.176Z" fill="#2F2E41"/>
<path d="M215.176 423.425L212.187 485.189C212.187 485.189 205.292 487.78 207.704 497.798C207.704 497.798 211.088 509.338 203.435 509.338C195.781 509.338 165.829 580.647 165.829 580.647L185.403 590.576L236.818 515.85L251.433 465.946L259.263 522.643L259.785 610.172L285.361 607.298L292.669 506.183L296.062 429.105L215.176 423.425Z" fill="#2F2E41"/>
<path d="M304.194 443.301L297.891 397.518L276.056 290.496L234.56 292.847L214.748 331.101L218.191 405.72L210.266 435.18L304.194 443.301Z" fill="#3F3D56"/>
<path d="M288.193 378.24L313.116 425.738L317.02 435.057L328.43 421.529L312.788 366.198C312.788 366.198 298.636 297.593 276.137 290.61L270.695 291.5L288.193 378.24Z" fill="#3F3D56"/>
<path d="M228.783 434.567C227.501 434.129 226.33 433.415 225.354 432.475C224.377 431.535 223.618 430.392 223.131 429.127C222.643 427.861 222.439 426.504 222.532 425.152C222.624 423.799 223.013 422.483 223.669 421.296L210.485 404.708L218.6 394.229L236.889 417.916C238.807 419.151 240.206 421.048 240.821 423.247C241.435 425.446 241.222 427.794 240.223 429.846C239.224 431.899 237.507 433.513 235.399 434.383C233.29 435.253 230.936 435.318 228.783 434.567V434.567Z" fill="#FFB7B7"/>
<path d="M242.295 299.629L234.939 292.564C234.939 292.564 226.297 295.784 220.075 312.405C213.853 329.026 193.605 374.032 193.605 374.032L213.423 414.314L226.786 405.446L219.579 369.973L242.295 299.629Z" fill="#3F3D56"/>
<path d="M259.244 285.837C247.1 285.837 237.256 275.981 237.256 263.824C237.256 251.667 247.1 241.811 259.244 241.811C271.388 241.811 281.232 251.667 281.232 263.824C281.232 275.981 271.388 285.837 259.244 285.837Z" fill="#FFB7B7"/>
<path d="M238.564 246.226L237.498 244.078L242.862 241.41C242.862 241.41 248.779 231.771 259.486 234.48C270.193 237.189 275.01 238.81 275.01 238.81L280.361 241.505L277.675 244.179L282.492 245.801L279.274 247.401L283.019 249.556L281.003 260.602C281.003 260.602 277.655 252.224 271.219 255.426C264.782 258.627 253.009 253.771 253.009 253.771L242.781 273.588C242.781 273.588 240.67 266.641 236.908 268.493C236.908 268.493 227.297 253.169 238.564 246.226Z" fill="#2F2E41"/>
<path d="M0.998887 641H888.001C888.266 641 888.52 640.895 888.707 640.707C888.895 640.52 889 640.265 889 640C889 639.735 888.895 639.48 888.707 639.293C888.52 639.105 888.266 639 888.001 639H0.998887C0.733968 639 0.479854 639.105 0.292528 639.293C0.105202 639.48 1.03712e-05 639.735 1.03712e-05 640C1.03712e-05 640.265 0.105202 640.52 0.292528 640.707C0.479854 640.895 0.733968 641 0.998887 641Z" fill="#CBCBCB"/>
</svg>
