<svg width="1084" height="819" viewBox="0 0 1084 819" fill="none" xmlns="http://www.w3.org/2000/svg">
<g clip-path="url(#clip0_1:2)">
<path d="M1083.42 652.95L739.44 788.76L664.18 818.47L501.39 761.72L362.46 713.29L350.92 709.27L334.01 666.43L266.77 496.12L233.02 410.62L222.87 384.92L215.53 366.32L199.17 324.88L172.68 257.79L230.54 234.95L285.8 213.13L325.52 197.45L825.63 0L1083.42 652.95Z" fill="#F2F2F2"/>
<path d="M24.9397 436.256C29.1168 435.352 33.482 436.144 37.0751 438.458C40.6682 440.773 43.1948 444.419 44.0991 448.596C45.0034 452.773 44.2114 457.139 41.8972 460.732C39.583 464.325 35.9363 466.851 31.7592 467.756C23.0609 469.639 0 458.144 0 458.144C0 458.144 16.2414 438.14 24.9397 436.256Z" fill="#FFDE40"/>
<path d="M28.79 767.105C31.5247 763.821 35.4521 761.757 39.7082 761.369C43.9643 760.98 48.2006 762.298 51.485 765.032C54.7694 767.767 56.833 771.695 57.2217 775.951C57.6105 780.207 56.2926 784.443 53.5579 787.727C47.8633 794.567 22.6142 799.708 22.6142 799.708C22.6142 799.708 23.0954 773.945 28.79 767.105Z" fill="#FFDE40"/>
<path d="M727.665 242.444C701.705 198.58 650.346 196.535 650.346 196.535C650.346 196.535 600.299 190.136 568.195 256.941C538.27 319.209 496.971 379.33 561.546 393.907L573.21 357.603L580.433 396.61C589.627 397.271 598.851 397.428 608.062 397.082C677.216 394.849 743.075 397.735 740.954 372.92C738.135 339.931 752.644 284.65 727.665 242.444Z" fill="#2F2E41"/>
<path d="M621.112 334.247C630.057 354.034 635.697 377.62 639.065 403.819L710.881 399.33C694.37 375.934 688.888 349.08 695.171 318.538L621.112 334.247Z" fill="#FFB8B8"/>
<path opacity="0.2" d="M621.112 334.247C630.057 354.034 635.697 377.62 639.065 403.819L710.881 399.33C694.37 375.934 688.888 349.08 695.171 318.538L621.112 334.247Z" fill="black"/>
<path d="M287.908 710.983C287.908 710.983 250.739 730.893 269.6 747.891C288.462 764.889 313.376 725.391 313.376 725.391L287.908 710.983Z" fill="#FFB8B8"/>
<path d="M742.3 652.93L741.72 680.13L740.48 738.9L739.44 788.76L664.18 818.47L501.39 761.72L512.1 702.25L520.75 654.23L524.61 632.73L719.86 605.8L742.3 652.93Z" fill="#2F2E41"/>
<path d="M742.3 652.929L741.717 680.129C672.639 678.356 565.567 661.682 520.749 654.231L524.609 632.731L719.858 605.8L742.3 652.929Z" fill="#413E33"/>
<path d="M655.897 353.323C686.884 353.323 712.003 328.204 712.003 297.218C712.003 266.231 686.884 241.112 655.897 241.112C624.911 241.112 599.791 266.231 599.791 297.218C599.791 328.204 624.911 353.323 655.897 353.323Z" fill="#FFB8B8"/>
<path d="M763.621 683.226C763.621 683.226 770.353 743.821 729.957 739.332L723.224 678.738L687.317 642.83L586.326 640.586L512.266 710.157C512.266 710.157 510.022 638.342 518.999 631.609C527.976 624.876 548.174 609.167 548.174 609.167V597.945L487.579 474.512C487.579 474.512 523.487 400.452 552.662 398.208L590.814 395.964C590.814 395.964 604.28 389.231 604.28 386.987C604.28 384.743 602.036 366.789 613.257 371.277C613.257 371.277 614.267 348.251 626.094 355.276C626.094 355.276 663.326 384.451 701.119 356.555C701.119 356.555 718.736 353.323 716.492 362.3C714.248 371.277 716.492 378.01 720.98 378.01C725.469 378.01 745.667 384.743 745.667 389.231C745.667 390.196 747.126 399.487 749.414 413.469V413.491C757.741 464.458 777.086 577.747 777.086 577.747C777.086 577.747 797.284 606.922 763.621 683.226Z" fill="#FFDE40"/>
<path d="M503.289 463.291L487.579 474.512L343.948 658.54L267.644 719.134C267.644 719.134 310.285 712.402 301.308 748.309L563.884 597.945L503.289 463.291Z" fill="#FFDE40"/>
<path d="M749.415 413.469V413.491C746.43 431.041 649.165 427.383 635.699 427.383C622.234 427.383 611.013 425.139 597.547 416.162C584.082 407.185 590.814 395.964 590.814 395.964C590.814 395.964 602.28 387.231 602.28 384.987C602.28 382.743 600.036 364.789 611.257 369.277C611.257 369.277 612.267 346.251 624.094 353.276C624.094 353.276 663.326 384.451 701.119 356.555C701.119 356.555 718.736 353.323 716.492 362.3C714.248 371.277 716.492 378.01 720.98 378.01C725.469 378.01 745.667 384.743 745.667 389.231C745.667 390.196 747.126 399.487 749.415 413.469Z" fill="#FFDE40"/>
<path d="M737.812 329.759C737.812 329.759 719.858 291.607 701.904 309.561C683.95 327.515 722.102 354.446 722.102 354.446L737.812 329.759Z" fill="#FFB8B8"/>
<path d="M737.812 320.782C737.812 320.782 710.088 355.818 701.508 358.498C701.508 358.498 726.591 457.68 758.01 484.611L775.964 576.625C775.964 576.625 852.268 545.206 834.314 493.588C834.135 493.072 833.956 492.559 833.778 492.049C818.787 449.063 798.098 408.281 772.265 370.795L737.812 320.782Z" fill="#FFDE40"/>
<path opacity="0.2" d="M722.997 424.697L778.208 576.625L758.01 484.611L722.997 424.697Z" fill="black"/>
<path d="M716.188 238.215L665.447 211.637L595.377 222.51L580.88 286.54L616.968 285.152L627.05 261.628V284.764L643.701 284.123L653.366 246.672L659.407 286.54L718.604 285.332L716.188 238.215Z" fill="#2F2E41"/>
<path d="M280.895 738.456C246.015 719.012 224.302 692.465 216.356 659.554C210.457 635.118 212.152 607.621 221.394 577.826C228.246 555.859 238.518 535.109 251.833 516.342C322.471 416.355 328.847 351.204 321.757 314.155C313.983 273.532 288.725 256.661 288.471 256.496L289.561 254.819C289.822 254.988 315.745 272.251 323.706 313.699C328.295 337.593 326.136 364.839 317.288 394.68C306.277 431.817 284.804 473.139 253.467 517.496C240.273 536.092 230.094 556.652 223.304 578.418C208.146 627.285 206.002 694.415 281.869 736.71L280.895 738.456Z" fill="#2F2E41"/>
<path d="M217.191 553.314C189.693 537.986 190.459 513.693 195.943 496.014C198.375 488.216 202.021 480.85 206.747 474.188C231.494 439.16 233.73 416.405 231.249 403.484C228.553 389.453 219.907 383.693 219.821 383.637L220.91 381.96C221.295 382.209 230.359 388.248 233.213 403.107C236.929 422.455 228.574 446.759 208.381 475.343C203.776 481.833 200.223 489.008 197.853 496.605C192.588 513.579 191.838 536.892 218.165 551.568L217.191 553.314Z" fill="#2F2E41"/>
<path d="M340.908 331.315L339.934 329.568C366.261 314.892 365.511 291.578 360.246 274.606C357.876 267.009 354.323 259.833 349.718 253.343C329.525 224.759 321.17 200.455 324.886 181.107C327.74 166.248 336.804 160.209 337.189 159.96L338.28 161.636C338.193 161.693 329.503 167.529 326.835 181.563C324.381 194.477 326.642 217.212 351.352 252.188C356.078 258.85 359.724 266.215 362.156 274.013C367.64 291.693 368.406 315.986 340.908 331.315Z" fill="#2F2E41"/>
<path d="M399.618 231.812C397.466 235.114 394.685 237.958 391.434 240.184C388.182 242.41 384.524 243.974 380.668 244.786C376.812 245.598 372.833 245.642 368.96 244.916C365.087 244.19 361.395 242.708 358.094 240.555C354.794 238.402 351.95 235.62 349.725 232.367C347.501 229.115 345.938 225.456 345.128 221.6C344.318 217.743 344.275 213.765 345.002 209.892C345.729 206.019 347.213 202.328 349.367 199.028C358.42 185.152 403.999 170.194 403.999 170.194C403.999 170.194 408.671 217.936 399.618 231.812Z" fill="#FFDE40"/>
<path d="M388.618 138.812C386.466 142.114 383.685 144.958 380.434 147.184C377.182 149.41 373.524 150.974 369.668 151.786C365.812 152.598 361.833 152.642 357.96 151.916C354.087 151.19 350.395 149.708 347.094 147.555C343.794 145.402 340.95 142.62 338.725 139.367C336.501 136.115 334.938 132.456 334.128 128.6C333.318 124.743 333.275 120.765 334.002 116.892C334.729 113.019 336.213 109.328 338.367 106.028C347.42 92.1516 392.999 77.1941 392.999 77.1941C392.999 77.1941 397.671 124.936 388.618 138.812Z" fill="#FFDE40"/>
<path d="M340.265 479.529C333.227 479.54 326.394 477.156 320.891 472.769C315.387 468.381 311.541 462.252 309.984 455.388C308.427 448.524 309.252 441.335 312.323 435.002C315.395 428.669 320.53 423.571 326.884 420.544C341.984 413.349 387.275 423.882 389.196 424.333L390.41 424.619L389.867 425.742C389.008 427.518 368.65 469.323 353.548 476.517C349.4 478.5 344.862 479.529 340.265 479.529V479.529ZM342.787 420.038C336.645 420.038 331.262 420.674 327.744 422.349C320.801 425.657 315.455 431.588 312.884 438.837C310.313 446.086 310.727 454.059 314.034 461.003C317.342 467.947 323.273 473.292 330.522 475.863C337.771 478.434 345.744 478.02 352.688 474.713C365.825 468.454 384.096 432.835 387.508 426.002C382.049 424.789 359.584 420.038 342.787 420.038V420.038Z" fill="#2F2E41"/>
<path d="M279.13 204.287C282.041 206.942 284.401 210.143 286.075 213.71C287.749 217.276 288.703 221.138 288.885 225.073C289.066 229.008 288.471 232.941 287.133 236.647C285.794 240.352 283.739 243.757 281.085 246.669C278.43 249.58 275.229 251.94 271.662 253.613C268.096 255.287 264.235 256.242 260.299 256.423C256.364 256.605 252.431 256.01 248.726 254.671C245.02 253.333 241.615 251.278 238.704 248.623C226.46 237.46 219.014 190.071 219.014 190.071C219.014 190.071 266.887 193.124 279.13 204.287Z" fill="#FFDE40"/>
<path d="M209.13 330.287C215.009 335.648 218.518 343.125 218.885 351.073C219.252 359.021 216.446 366.789 211.085 372.669C205.724 378.548 198.247 382.057 190.299 382.423C182.351 382.79 174.583 379.984 168.704 374.623C156.46 363.46 149.014 316.071 149.014 316.071C149.014 316.071 196.887 319.124 209.13 330.287Z" fill="#FFDE40"/>
<path d="M287.593 347.958C277.579 347.958 258.432 338.476 257.554 338.038L256.437 337.482L257.224 336.513C257.896 335.685 273.789 316.214 282.728 314.279C287.165 313.318 291.801 314.16 295.617 316.618C299.433 319.075 302.116 322.949 303.077 327.385C304.037 331.821 303.196 336.457 300.738 340.273C298.28 344.09 294.407 346.773 289.97 347.733C289.188 347.892 288.391 347.967 287.593 347.958V347.958ZM259.586 336.8C264.302 339.051 282.363 347.335 289.548 345.778C293.463 344.928 296.881 342.557 299.049 339.188C301.218 335.819 301.96 331.726 301.112 327.81C300.264 323.894 297.896 320.474 294.528 318.304C291.16 316.133 287.068 315.388 283.151 316.234C275.964 317.79 262.948 332.801 259.586 336.8Z" fill="#2F2E41"/>
<path d="M180.199 754.824C182.306 751.108 185.802 748.38 189.919 747.24C194.036 746.101 198.437 746.642 202.154 748.746C205.872 750.85 208.603 754.344 209.745 758.46C210.888 762.576 210.35 766.977 208.249 770.697C203.866 778.442 179.939 788.005 179.939 788.005C179.939 788.005 175.816 762.569 180.199 754.824Z" fill="#FFDE40"/>
<path d="M127.858 583.237C120.956 583.126 114.07 582.533 107.251 581.461L106.019 581.261L106.483 580.102C106.879 579.112 116.276 555.801 124.238 551.3C126.194 550.194 128.349 549.484 130.58 549.21C132.811 548.937 135.073 549.106 137.239 549.707C139.405 550.308 141.431 551.33 143.201 552.714C144.972 554.099 146.452 555.818 147.559 557.775C148.665 559.731 149.375 561.886 149.648 564.117C149.921 566.348 149.752 568.611 149.151 570.776C148.55 572.942 147.528 574.968 146.144 576.738C144.76 578.509 143.04 579.989 141.084 581.096C138.223 582.713 133.186 583.237 127.858 583.237ZM108.823 579.675C113.994 580.424 133.698 582.973 140.099 579.355C143.589 577.382 146.152 574.104 147.225 570.242C148.297 566.379 147.791 562.249 145.818 558.759C143.845 555.269 140.567 552.706 136.705 551.634C132.842 550.561 128.712 551.067 125.222 553.04V553.04C118.822 556.658 110.847 574.857 108.823 579.675Z" fill="#2F2E41"/>
</g>
<defs>
<clipPath id="clip0_1:2">
<rect width="1083.42" height="818.47" fill="white"/>
</clipPath>
</defs>
</svg>
