<svg width="676" height="676" viewBox="0 0 676 676" fill="none" xmlns="http://www.w3.org/2000/svg">
<g clip-path="url(#clip0_2:27)">
<path d="M0 338C-0.0603797 383.755 9.20125 429.042 27.22 471.1L28.34 473.68C58.8194 543.019 111.67 600.135 178.44 635.894C245.209 671.653 322.042 683.989 396.65 670.93C398.68 670.57 400.707 670.197 402.73 669.81C423.637 665.757 444.109 659.72 463.87 651.78C467.08 650.49 470.267 649.153 473.43 647.77C475.59 646.83 477.75 645.86 479.89 644.86C538.431 617.728 587.995 574.426 622.741 520.058C657.487 465.69 675.966 402.522 676 338C676 151.33 524.67 0 338 0C151.33 0 0 151.33 0 338Z" fill="#FFDE40"/>
<path opacity="0.2" d="M396.65 670.93C398.68 670.57 400.707 670.197 402.73 669.81C404.05 631.5 408.58 552.87 424.03 470.52C432.48 425.45 444.21 379.25 460.48 337.95C466.054 323.66 472.421 309.691 479.55 296.11C495.99 265.06 515.93 238.92 540.11 221.21L536.55 216.35C516.44 231.09 498.367 251.783 482.33 278.43C477.52 286.41 472.9 294.923 468.47 303.97C463.72 313.65 459.19 323.927 454.88 334.8C452.13 341.72 449.473 348.88 446.91 356.28C435.75 388.41 426.263 425.07 418.45 466.26C416.72 475.36 415.073 484.683 413.51 494.23C401.4 568.2 397.75 636.59 396.65 670.93Z" fill="black"/>
<path opacity="0.2" d="M473.43 647.77C475.59 646.83 477.75 645.86 479.89 644.86C481.98 622.16 485.82 594 492.84 567.27C495.915 555.265 499.862 543.5 504.65 532.07C512.66 513.32 523.03 497.38 536.44 487.55L532.88 482.7C518.84 492.98 508.01 509.23 499.64 528.24C490.21 549.66 483.92 574.59 479.73 598.41C476.62 616.1 474.66 633.19 473.43 647.77Z" fill="black"/>
<path opacity="0.2" d="M573.738 221.07C557.121 221.07 543.65 207.599 543.65 190.982C543.65 174.364 557.121 160.893 573.738 160.893C590.356 160.893 603.827 174.364 603.827 190.982C603.827 207.599 590.356 221.07 573.738 221.07Z" fill="black"/>
<path opacity="0.2" d="M564.049 480.079C547.431 480.079 533.96 466.608 533.96 449.991C533.96 433.373 547.431 419.902 564.049 419.902C580.666 419.902 594.137 433.373 594.137 449.991C594.137 466.608 580.666 480.079 564.049 480.079Z" fill="black"/>
<path opacity="0.2" d="M454.286 241.521C460.666 277.519 446.581 310.114 446.581 310.114C446.581 310.114 422.151 284.345 415.771 248.348C409.39 212.351 423.475 179.756 423.475 179.756C423.475 179.756 447.905 205.524 454.286 241.521Z" fill="black"/>
<path opacity="0.2" d="M554.282 326.971C519.947 339.526 485.446 331.469 485.446 331.469C485.446 331.469 506.612 303.056 540.947 290.501C575.282 277.946 609.783 286.003 609.783 286.003C609.783 286.003 588.617 314.416 554.282 326.971Z" fill="black"/>
<path opacity="0.2" d="M560.105 556.333C536.039 565.133 511.822 559.392 511.822 559.392C511.822 559.392 526.623 539.384 550.689 530.584C574.755 521.784 598.972 527.524 598.972 527.524C598.972 527.524 584.171 547.533 560.105 556.333Z" fill="black"/>
<path d="M338.694 412.849C265.919 412.849 206.924 353.853 206.924 281.079C206.924 208.304 265.919 149.309 338.694 149.309C411.469 149.309 470.464 208.304 470.464 281.079C470.464 353.853 411.469 412.849 338.694 412.849Z" fill="#D0CDE1"/>
<path d="M390.167 381.965C390.167 381.965 373.695 460.204 373.695 468.439C373.695 476.675 295.457 513.735 295.457 513.735L225.454 501.382L200.747 427.261C200.747 427.261 241.925 365.494 241.925 340.787L390.167 381.965Z" fill="#D0CDE1"/>
<path d="M27.22 471.1L28.34 473.68C58.8194 543.019 111.67 600.135 178.44 635.894C245.209 671.653 322.042 683.989 396.65 670.93C398.68 670.57 400.707 670.197 402.73 669.81C423.637 665.757 444.109 659.72 463.87 651.78C467.08 650.49 470.267 649.153 473.43 647.77C475.59 646.83 477.75 645.86 479.89 644.86C499.287 635.874 517.787 625.065 535.14 612.58L550.76 567.27L541.98 560.57L523.92 546.78L504.65 532.07L499.64 528.24L424.03 470.52L418.45 466.26L379.15 436.26L379.14 436.25C379.14 436.25 336.64 505.5 274.87 484.91C213.1 464.32 214.45 405.28 214.45 405.28L27.22 471.1Z" fill="#2F2E41"/>
<path d="M452.965 174.916C452.965 174.916 411.128 84.2702 330.941 105.188C250.755 126.107 205.432 157.484 201.945 188.862C198.459 220.239 203.689 267.305 203.689 267.305C203.689 267.305 212.405 202.807 268.187 216.753C323.969 230.698 411.128 220.239 411.128 220.239L425.074 345.749C425.074 345.749 440.762 323.087 458.194 337.033C475.626 350.978 508.747 202.807 452.965 174.916Z" fill="#2F2E41"/>
<path d="M463.87 651.78C467.08 650.49 470.267 649.153 473.43 647.77C475.59 646.83 477.75 645.86 479.89 644.86C511.971 629.984 541.525 610.177 567.48 586.16C558.29 573.64 550.76 567.27 550.76 567.27H488.99L479.73 598.41L463.87 651.78Z" fill="#2F2E41"/>
<path d="M81.33 464.32L28.34 473.68C42.5208 505.985 61.6727 535.87 85.1 562.25L81.33 464.32Z" fill="#2F2E41"/>
</g>
<defs>
<clipPath id="clip0_2:27">
<rect width="676" height="676" fill="white" transform="matrix(-1 0 0 1 676 0)"/>
</clipPath>
</defs>
</svg>
